<svg xmlns="http://www.w3.org/2000/svg" width="512" height="512" viewBox="0 0 512 512" version="1.1">
	<path d="M 91 1.466 C 44.313 9.460, 8.753 45.279, 1.473 91.646 C 0.115 100.295, -0.039 121.013, 0.215 261 L 0.504 420.500 3.201 430.277 C 6.306 441.530, 12.877 455.983, 18.964 464.947 C 24.548 473.169, 34.768 483.901, 42.907 490.087 C 51.950 496.961, 69.477 505.435, 81.500 508.746 L 91.500 511.500 256 511.500 L 420.500 511.500 430.500 508.746 C 442.523 505.435, 460.050 496.961, 469.093 490.087 C 482.893 479.598, 493.853 465.911, 501.674 449.400 C 506.195 439.857, 511 423.385, 511 417.431 C 511 415.609, 511.450 413.840, 512 413.500 C 512.660 413.092, 513 359.137, 513 254.882 C 513 149.803, 512.665 97.089, 512 97.500 C 511.408 97.866, 511 96.720, 511 94.687 C 511 82.942, 500.208 56.222, 490.087 42.907 C 483.901 34.768, 473.169 24.548, 464.947 18.964 C 455.984 12.877, 441.530 6.306, 430.277 3.201 L 420.500 0.504 259.500 0.343 C 132.380 0.215, 96.922 0.452, 91 1.466 M 0.488 256 C 0.488 343.175, 0.606 378.837, 0.750 335.250 C 0.894 291.662, 0.894 220.337, 0.750 176.750 C 0.606 133.162, 0.488 168.825, 0.488 256 M 328.389 148.423 C 312.172 152.124, 297.419 164.919, 291.893 180.073 L 289.732 186 218.404 186 C 148.820 186, 146.940 186.050, 141.567 188.061 C 135.208 190.440, 128.267 196.691, 124.828 203.137 L 122.500 207.500 122.222 273.814 L 121.945 340.127 124.608 346.061 C 127.673 352.890, 133.896 359.137, 140.824 362.339 L 145.500 364.500 242.500 364.500 C 335.881 364.500, 339.686 364.428, 344.497 362.573 C 351.043 360.049, 359.174 352.276, 362.148 345.702 L 364.500 340.500 364.795 291.563 L 365.090 242.625 367.295 241.109 C 377.030 234.414, 385.103 223.308, 388.405 212.068 C 390.358 205.419, 390.458 192.311, 388.610 185.368 C 385.433 173.436, 375.848 160.617, 365.623 154.625 C 354.538 148.129, 340.166 145.735, 328.389 148.423 M 327.836 161.853 C 324.721 162.886, 320.613 164.694, 318.708 165.872 C 313.457 169.117, 307.130 176.490, 304.160 182.825 C 301.836 187.784, 301.500 189.761, 301.500 198.500 C 301.500 207.396, 301.805 209.121, 304.263 214.124 C 308.575 222.902, 314.078 228.435, 322.763 232.728 C 329.858 236.234, 331 236.495, 338.948 236.427 C 350.188 236.330, 357.055 233.695, 364.834 226.493 C 385.043 207.784, 380.095 175.393, 355.249 163.742 C 346.971 159.860, 336.110 159.112, 327.836 161.853 M 315.655 193.829 C 313.228 196.510, 313.526 201.554, 316.223 203.443 C 318.061 204.731, 322.040 205, 339.268 205 C 360.043 205, 360.097 204.994, 362.545 202.545 C 365.540 199.551, 365.613 198.049, 362.927 194.635 L 360.855 192 339.082 192 C 319.260 192, 317.162 192.164, 315.655 193.829 M 149.358 198.954 C 144.202 200.184, 139.577 203.633, 136.962 208.201 L 134.500 212.500 134.204 272.500 C 133.996 314.428, 134.245 333.855, 135.029 337 C 136.516 342.966, 140.336 347.795, 145.384 350.087 C 149.310 351.870, 153.816 351.956, 243 351.956 C 331.791 351.956, 336.701 351.863, 340.500 350.110 C 347.917 346.687, 352 339.932, 352 331.085 L 352 326.107 321.250 325.803 C 291.922 325.514, 290.313 325.400, 286.449 323.331 C 268.657 313.806, 263.563 290.520, 275.766 274.500 C 278.523 270.881, 281.470 268.533, 286.434 266 L 293.292 262.500 322.646 262.171 L 352 261.842 352 254.875 L 352 247.909 348.250 248.671 C 332.118 251.948, 312.340 245.129, 301.136 232.428 C 293.903 224.228, 288 210.236, 288 201.290 L 288 198 220.250 198.102 C 182.988 198.159, 151.086 198.542, 149.358 198.954 M 294.914 275.956 C 290.426 277.316, 287.002 280.140, 284.345 284.675 C 282.136 288.443, 281.829 289.966, 282.175 295.414 C 282.658 302.998, 285.455 307.741, 291.483 311.197 C 295.376 313.429, 296.373 313.509, 323.750 313.807 L 352 314.114 352 294.557 L 352 275 324.750 275.086 C 309.762 275.133, 296.336 275.525, 294.914 275.956 M 296.055 290.657 C 293.680 293.676, 294.061 296.538, 297.198 299.250 C 299.858 301.550, 302.536 301.464, 305 299 C 308.933 295.067, 306.089 288, 300.573 288 C 299.136 288, 297.292 289.085, 296.055 290.657" stroke="none" fill="black" fill-rule="evenodd"/>
</svg>